<mxfile host="app.diagrams.net" modified="2021-11-11T23:21:28.356Z" agent="5.0 (Windows NT 10.0; Win64; x64) AppleWebKit/537.36 (KHTML, like Gecko) Chrome/95.0.4638.69 Safari/537.36" etag="gG7xOHCshIAdMqShaDXS" version="15.7.0" type="github">
  <diagram id="JqJulNWtkkzkui1iYJNZ" name="Page-1">
    <mxGraphModel dx="1242" dy="1853" grid="0" gridSize="10" guides="1" tooltips="1" connect="1" arrows="1" fold="1" page="0" pageScale="1" pageWidth="827" pageHeight="583" background="#DAD2D8" math="0" shadow="0">
      <root>
        <mxCell id="0" />
        <mxCell id="1" parent="0" />
        <mxCell id="_EjSreSWTz0akhGJ5G0a-1" value="User&lt;br style=&quot;font-size: 14px;&quot;&gt;" style="shape=umlActor;verticalLabelPosition=bottom;verticalAlign=top;html=1;outlineConnect=0;fontSize=14;labelBackgroundColor=none;fillColor=#FAE5C7;strokeColor=#0F8B8D;fontColor=#143642;" parent="1" vertex="1">
          <mxGeometry x="548" y="-830" width="54" height="110" as="geometry" />
        </mxCell>
        <mxCell id="_EjSreSWTz0akhGJ5G0a-54" style="edgeStyle=orthogonalEdgeStyle;rounded=0;orthogonalLoop=1;jettySize=auto;html=1;fontSize=14;labelBackgroundColor=#DAD2D8;strokeColor=#A8201A;fontColor=#143642;" parent="1" edge="1">
          <mxGeometry relative="1" as="geometry">
            <mxPoint x="577" y="-480" as="sourcePoint" />
            <mxPoint x="577" y="-440" as="targetPoint" />
          </mxGeometry>
        </mxCell>
        <mxCell id="_EjSreSWTz0akhGJ5G0a-7" value="Guest&lt;br style=&quot;font-size: 14px;&quot;&gt;" style="shape=umlActor;verticalLabelPosition=bottom;verticalAlign=top;html=1;outlineConnect=0;fontSize=14;fillColor=#FAE5C7;strokeColor=#0F8B8D;fontColor=#143642;" parent="1" vertex="1">
          <mxGeometry x="552" y="-600" width="50" height="100" as="geometry" />
        </mxCell>
        <mxCell id="_EjSreSWTz0akhGJ5G0a-10" value="Registered User" style="shape=umlActor;verticalLabelPosition=bottom;verticalAlign=top;html=1;outlineConnect=0;fontSize=14;fillColor=#FAE5C7;strokeColor=#0F8B8D;fontColor=#143642;" parent="1" vertex="1">
          <mxGeometry x="840" y="-610" width="50" height="110" as="geometry" />
        </mxCell>
        <mxCell id="_EjSreSWTz0akhGJ5G0a-18" value="" style="endArrow=block;endSize=16;endFill=0;html=1;rounded=0;exitX=0.5;exitY=0;exitDx=0;exitDy=0;exitPerimeter=0;fontSize=14;labelBackgroundColor=#DAD2D8;strokeColor=#A8201A;fontColor=#143642;" parent="1" source="_EjSreSWTz0akhGJ5G0a-7" target="_EjSreSWTz0akhGJ5G0a-1" edge="1">
          <mxGeometry width="160" relative="1" as="geometry">
            <mxPoint x="530" y="-690.5" as="sourcePoint" />
            <mxPoint x="700" y="-710" as="targetPoint" />
            <Array as="points" />
          </mxGeometry>
        </mxCell>
        <mxCell id="_EjSreSWTz0akhGJ5G0a-20" value="" style="endArrow=block;endSize=16;endFill=0;html=1;rounded=0;exitX=0.5;exitY=0;exitDx=0;exitDy=0;exitPerimeter=0;entryX=1;entryY=1;entryDx=0;entryDy=0;entryPerimeter=0;fontSize=14;labelBackgroundColor=#DAD2D8;strokeColor=#A8201A;fontColor=#143642;" parent="1" source="_EjSreSWTz0akhGJ5G0a-10" target="_EjSreSWTz0akhGJ5G0a-1" edge="1">
          <mxGeometry width="160" relative="1" as="geometry">
            <mxPoint x="790" y="-590" as="sourcePoint" />
            <mxPoint x="744" y="-710" as="targetPoint" />
            <Array as="points" />
          </mxGeometry>
        </mxCell>
        <mxCell id="_EjSreSWTz0akhGJ5G0a-56" style="edgeStyle=orthogonalEdgeStyle;rounded=0;orthogonalLoop=1;jettySize=auto;html=1;fontSize=14;labelBackgroundColor=#DAD2D8;strokeColor=#A8201A;fontColor=#143642;" parent="1" edge="1">
          <mxGeometry relative="1" as="geometry">
            <mxPoint x="1015" y="-240" as="sourcePoint" />
            <mxPoint x="1015" y="-160" as="targetPoint" />
          </mxGeometry>
        </mxCell>
        <mxCell id="_EjSreSWTz0akhGJ5G0a-22" value="Subscribed User&lt;br style=&quot;font-size: 14px;&quot;&gt;&amp;nbsp;" style="shape=umlActor;verticalLabelPosition=bottom;verticalAlign=top;html=1;fontSize=14;fillColor=#FAE5C7;strokeColor=#0F8B8D;fontColor=#143642;" parent="1" vertex="1">
          <mxGeometry x="990" y="-375" width="50" height="110" as="geometry" />
        </mxCell>
        <mxCell id="_EjSreSWTz0akhGJ5G0a-67" style="edgeStyle=orthogonalEdgeStyle;rounded=0;orthogonalLoop=1;jettySize=auto;html=1;entryX=0.5;entryY=0;entryDx=0;entryDy=0;fontSize=14;labelBackgroundColor=#DAD2D8;strokeColor=#A8201A;fontColor=#143642;" parent="1" target="_EjSreSWTz0akhGJ5G0a-61" edge="1">
          <mxGeometry relative="1" as="geometry">
            <mxPoint x="719" y="-150" as="targetPoint" />
            <mxPoint x="719" y="-240" as="sourcePoint" />
          </mxGeometry>
        </mxCell>
        <mxCell id="_EjSreSWTz0akhGJ5G0a-24" value="Unsubscribed User&lt;br style=&quot;font-size: 14px;&quot;&gt;" style="shape=umlActor;verticalLabelPosition=bottom;verticalAlign=top;html=1;fontSize=14;fillColor=#FAE5C7;strokeColor=#0F8B8D;fontColor=#143642;" parent="1" vertex="1">
          <mxGeometry x="694" y="-370" width="50" height="100" as="geometry" />
        </mxCell>
        <mxCell id="_EjSreSWTz0akhGJ5G0a-26" value="" style="endArrow=block;endSize=16;endFill=0;html=1;rounded=0;exitX=0.5;exitY=0;exitDx=0;exitDy=0;exitPerimeter=0;fontSize=14;labelBackgroundColor=#DAD2D8;strokeColor=#A8201A;fontColor=#143642;" parent="1" source="_EjSreSWTz0akhGJ5G0a-24" edge="1">
          <mxGeometry width="160" relative="1" as="geometry">
            <mxPoint x="750" y="-359.998947368421" as="sourcePoint" />
            <mxPoint x="840" y="-478.41999999999996" as="targetPoint" />
            <Array as="points" />
          </mxGeometry>
        </mxCell>
        <mxCell id="_EjSreSWTz0akhGJ5G0a-27" value="" style="endArrow=block;endSize=16;endFill=0;html=1;rounded=0;exitX=0.5;exitY=0;exitDx=0;exitDy=0;exitPerimeter=0;fontSize=14;labelBackgroundColor=#DAD2D8;strokeColor=#A8201A;fontColor=#143642;" parent="1" source="_EjSreSWTz0akhGJ5G0a-22" edge="1">
          <mxGeometry width="160" relative="1" as="geometry">
            <mxPoint x="960" y="-359.998947368421" as="sourcePoint" />
            <mxPoint x="900" y="-478" as="targetPoint" />
            <Array as="points" />
          </mxGeometry>
        </mxCell>
        <mxCell id="_EjSreSWTz0akhGJ5G0a-32" value="" style="endArrow=classic;html=1;rounded=0;entryX=0.5;entryY=0;entryDx=0;entryDy=0;exitX=0;exitY=1;exitDx=0;exitDy=0;exitPerimeter=0;fontSize=14;labelBackgroundColor=#DAD2D8;strokeColor=#A8201A;fontColor=#143642;" parent="1" source="QLCO7SmvpS3FhjPmcOOt-1" target="QLCO7SmvpS3FhjPmcOOt-4" edge="1">
          <mxGeometry width="50" height="50" relative="1" as="geometry">
            <mxPoint x="750" y="-775.5" as="sourcePoint" />
            <mxPoint x="890" y="-775" as="targetPoint" />
          </mxGeometry>
        </mxCell>
        <mxCell id="_EjSreSWTz0akhGJ5G0a-37" value="View Books" style="ellipse;whiteSpace=wrap;html=1;fontSize=14;fillColor=#FAE5C7;strokeColor=#0F8B8D;fontColor=#143642;" parent="1" vertex="1">
          <mxGeometry x="900" y="-810" width="120" height="70" as="geometry" />
        </mxCell>
        <mxCell id="_EjSreSWTz0akhGJ5G0a-38" value="&amp;lt;&amp;lt;extend&amp;gt;&amp;gt;" style="endArrow=open;endSize=12;dashed=1;html=1;rounded=0;entryX=0.74;entryY=0.023;entryDx=0;entryDy=0;entryPerimeter=0;exitX=0.029;exitY=0.694;exitDx=0;exitDy=0;exitPerimeter=0;fontSize=14;labelBackgroundColor=#DAD2D8;strokeColor=#A8201A;fontColor=#143642;" parent="1" source="_EjSreSWTz0akhGJ5G0a-41" target="_EjSreSWTz0akhGJ5G0a-37" edge="1">
          <mxGeometry x="0.2305" y="-17" width="160" relative="1" as="geometry">
            <mxPoint x="1110" y="-860" as="sourcePoint" />
            <mxPoint x="1000" y="-820" as="targetPoint" />
            <mxPoint as="offset" />
          </mxGeometry>
        </mxCell>
        <mxCell id="_EjSreSWTz0akhGJ5G0a-41" value="See popular books" style="ellipse;whiteSpace=wrap;html=1;fontSize=14;fillColor=#FAE5C7;strokeColor=#0F8B8D;fontColor=#143642;" parent="1" vertex="1">
          <mxGeometry x="1100" y="-960" width="110" height="70" as="geometry" />
        </mxCell>
        <mxCell id="_EjSreSWTz0akhGJ5G0a-44" value="Browse Books" style="ellipse;whiteSpace=wrap;html=1;fontSize=14;fillColor=#FAE5C7;strokeColor=#0F8B8D;fontColor=#143642;" parent="1" vertex="1">
          <mxGeometry x="1140" y="-890" width="110" height="70" as="geometry" />
        </mxCell>
        <mxCell id="_EjSreSWTz0akhGJ5G0a-45" value="&amp;lt;&amp;lt;extend&amp;gt;&amp;gt;" style="endArrow=open;endSize=12;dashed=1;html=1;rounded=0;entryX=1;entryY=0.329;entryDx=0;entryDy=0;entryPerimeter=0;exitX=0;exitY=0.5;exitDx=0;exitDy=0;fontSize=14;labelBackgroundColor=#DAD2D8;strokeColor=#A8201A;fontColor=#143642;" parent="1" source="_EjSreSWTz0akhGJ5G0a-44" target="_EjSreSWTz0akhGJ5G0a-37" edge="1">
          <mxGeometry x="0.2305" y="-17" width="160" relative="1" as="geometry">
            <mxPoint x="1144.39" y="-860" as="sourcePoint" />
            <mxPoint x="1010" y="-766.9700000000001" as="targetPoint" />
            <mxPoint as="offset" />
          </mxGeometry>
        </mxCell>
        <mxCell id="_EjSreSWTz0akhGJ5G0a-46" value="Look at new recordings" style="ellipse;whiteSpace=wrap;html=1;fontSize=14;fillColor=#FAE5C7;strokeColor=#0F8B8D;fontColor=#143642;" parent="1" vertex="1">
          <mxGeometry x="1150" y="-810" width="110" height="70" as="geometry" />
        </mxCell>
        <mxCell id="_EjSreSWTz0akhGJ5G0a-47" value="&amp;lt;&amp;lt;extend&amp;gt;&amp;gt;" style="endArrow=open;endSize=12;dashed=1;html=1;rounded=0;entryX=1;entryY=0.5;entryDx=0;entryDy=0;exitX=0;exitY=0.5;exitDx=0;exitDy=0;fontSize=14;labelBackgroundColor=#DAD2D8;strokeColor=#A8201A;fontColor=#143642;" parent="1" source="_EjSreSWTz0akhGJ5G0a-46" target="_EjSreSWTz0akhGJ5G0a-37" edge="1">
          <mxGeometry x="-0.1542" y="-18" width="160" relative="1" as="geometry">
            <mxPoint x="1140" y="-770" as="sourcePoint" />
            <mxPoint x="1020" y="-701.97" as="targetPoint" />
            <mxPoint as="offset" />
          </mxGeometry>
        </mxCell>
        <mxCell id="_EjSreSWTz0akhGJ5G0a-48" style="edgeStyle=orthogonalEdgeStyle;rounded=0;orthogonalLoop=1;jettySize=auto;html=1;exitX=0.5;exitY=1;exitDx=0;exitDy=0;fontSize=14;labelBackgroundColor=#DAD2D8;strokeColor=#A8201A;fontColor=#143642;" parent="1" source="_EjSreSWTz0akhGJ5G0a-46" target="_EjSreSWTz0akhGJ5G0a-46" edge="1">
          <mxGeometry relative="1" as="geometry" />
        </mxCell>
        <mxCell id="_EjSreSWTz0akhGJ5G0a-49" value="Search&amp;nbsp; by keyword" style="ellipse;whiteSpace=wrap;html=1;fontSize=14;fillColor=#FAE5C7;strokeColor=#0F8B8D;fontColor=#143642;" parent="1" vertex="1">
          <mxGeometry x="1140" y="-730" width="110" height="70" as="geometry" />
        </mxCell>
        <mxCell id="_EjSreSWTz0akhGJ5G0a-50" value="&amp;lt;&amp;lt;extend&amp;gt;&amp;gt;" style="endArrow=open;endSize=12;dashed=1;html=1;rounded=0;exitX=0;exitY=0;exitDx=0;exitDy=0;fontSize=14;labelBackgroundColor=#DAD2D8;strokeColor=#A8201A;fontColor=#143642;" parent="1" source="_EjSreSWTz0akhGJ5G0a-49" edge="1">
          <mxGeometry x="-0.1542" y="-18" width="160" relative="1" as="geometry">
            <mxPoint x="1140" y="-750" as="sourcePoint" />
            <mxPoint x="1020" y="-760" as="targetPoint" />
            <mxPoint as="offset" />
          </mxGeometry>
        </mxCell>
        <mxCell id="_EjSreSWTz0akhGJ5G0a-51" value="Register" style="ellipse;whiteSpace=wrap;html=1;fontSize=14;fillColor=#FAE5C7;strokeColor=#0F8B8D;fontColor=#143642;" parent="1" vertex="1">
          <mxGeometry x="520" y="-440" width="110" height="70" as="geometry" />
        </mxCell>
        <mxCell id="_EjSreSWTz0akhGJ5G0a-55" value="Download list" style="ellipse;whiteSpace=wrap;html=1;fontSize=14;fillColor=#FAE5C7;strokeColor=#0F8B8D;fontColor=#143642;" parent="1" vertex="1">
          <mxGeometry x="960" y="-150" width="110" height="70" as="geometry" />
        </mxCell>
        <mxCell id="_EjSreSWTz0akhGJ5G0a-57" value="" style="endArrow=classic;html=1;rounded=0;fontSize=14;labelBackgroundColor=#DAD2D8;strokeColor=#A8201A;fontColor=#143642;" parent="1" edge="1">
          <mxGeometry width="50" height="50" relative="1" as="geometry">
            <mxPoint x="880" y="-550" as="sourcePoint" />
            <mxPoint x="1130" y="-549" as="targetPoint" />
          </mxGeometry>
        </mxCell>
        <mxCell id="_EjSreSWTz0akhGJ5G0a-58" value="Make list of&amp;nbsp;&lt;br&gt;favorites" style="ellipse;whiteSpace=wrap;html=1;fontSize=14;fillColor=#FAE5C7;strokeColor=#0F8B8D;fontColor=#143642;" parent="1" vertex="1">
          <mxGeometry x="1150" y="-587.5" width="130" height="75" as="geometry" />
        </mxCell>
        <mxCell id="_EjSreSWTz0akhGJ5G0a-61" value="Subscribe" style="ellipse;whiteSpace=wrap;html=1;fontSize=14;fillColor=#FAE5C7;strokeColor=#0F8B8D;fontColor=#143642;" parent="1" vertex="1">
          <mxGeometry x="664" y="-140" width="110" height="70" as="geometry" />
        </mxCell>
        <mxCell id="_EjSreSWTz0akhGJ5G0a-78" value="&lt;font style=&quot;font-size: 14px;&quot;&gt;Purchase&lt;br style=&quot;font-size: 14px;&quot;&gt;Subscription&lt;/font&gt;" style="ellipse;whiteSpace=wrap;html=1;fontSize=14;fillColor=#FAE5C7;strokeColor=#0F8B8D;fontColor=#143642;" parent="1" vertex="1">
          <mxGeometry x="1080" y="-180" width="110" height="70" as="geometry" />
        </mxCell>
        <mxCell id="_EjSreSWTz0akhGJ5G0a-80" value="" style="endArrow=classic;html=1;rounded=0;fontSize=14;labelBackgroundColor=#DAD2D8;strokeColor=#A8201A;fontColor=#143642;" parent="1" edge="1">
          <mxGeometry width="50" height="50" relative="1" as="geometry">
            <mxPoint x="1070" y="-230" as="sourcePoint" />
            <mxPoint x="1100" y="-180" as="targetPoint" />
          </mxGeometry>
        </mxCell>
        <mxCell id="_EjSreSWTz0akhGJ5G0a-81" value="" style="endArrow=classic;html=1;rounded=0;fontSize=14;labelBackgroundColor=#DAD2D8;strokeColor=#A8201A;fontColor=#143642;entryX=0.5;entryY=0;entryDx=0;entryDy=0;" parent="1" target="_EjSreSWTz0akhGJ5G0a-82" edge="1">
          <mxGeometry width="50" height="50" relative="1" as="geometry">
            <mxPoint x="970" y="-230" as="sourcePoint" />
            <mxPoint x="910" y="-190" as="targetPoint" />
          </mxGeometry>
        </mxCell>
        <mxCell id="_EjSreSWTz0akhGJ5G0a-82" value="Unlimited books" style="ellipse;whiteSpace=wrap;html=1;fontSize=14;fillColor=#FAE5C7;strokeColor=#0F8B8D;fontColor=#143642;" parent="1" vertex="1">
          <mxGeometry x="833" y="-180" width="110" height="70" as="geometry" />
        </mxCell>
        <mxCell id="_EjSreSWTz0akhGJ5G0a-96" value="" style="endArrow=open;endSize=12;dashed=1;html=1;rounded=0;fontSize=14;exitX=0.5;exitY=1;exitDx=0;exitDy=0;entryX=0.5;entryY=0;entryDx=0;entryDy=0;labelBackgroundColor=#DAD2D8;strokeColor=#A8201A;fontColor=#143642;" parent="1" source="_EjSreSWTz0akhGJ5G0a-78" target="_EjSreSWTz0akhGJ5G0a-98" edge="1">
          <mxGeometry width="160" relative="1" as="geometry">
            <mxPoint x="1140" y="-40" as="sourcePoint" />
            <mxPoint x="1170" y="50" as="targetPoint" />
          </mxGeometry>
        </mxCell>
        <mxCell id="_EjSreSWTz0akhGJ5G0a-97" value="&amp;lt;&amp;lt;include&amp;gt;&amp;gt;" style="text;html=1;align=center;verticalAlign=middle;resizable=0;points=[];autosize=1;strokeColor=none;fillColor=none;fontSize=14;fontColor=#143642;" parent="1" vertex="1">
          <mxGeometry x="1140" y="-70" width="90" height="20" as="geometry" />
        </mxCell>
        <mxCell id="_EjSreSWTz0akhGJ5G0a-98" value="&lt;font style=&quot;font-size: 14px;&quot;&gt;Checkout&lt;/font&gt;" style="ellipse;whiteSpace=wrap;html=1;fontSize=14;fillColor=#FAE5C7;strokeColor=#0F8B8D;fontColor=#143642;" parent="1" vertex="1">
          <mxGeometry x="1090" y="-25" width="110" height="70" as="geometry" />
        </mxCell>
        <mxCell id="_EjSreSWTz0akhGJ5G0a-102" value="" style="endArrow=open;endSize=12;dashed=1;html=1;rounded=0;fontSize=14;labelBackgroundColor=#DAD2D8;strokeColor=#A8201A;fontColor=#143642;" parent="1" edge="1">
          <mxGeometry width="160" relative="1" as="geometry">
            <mxPoint x="1210" y="37" as="sourcePoint" />
            <mxPoint x="1270" y="95" as="targetPoint" />
            <Array as="points">
              <mxPoint x="1240" y="65" />
            </Array>
          </mxGeometry>
        </mxCell>
        <mxCell id="_EjSreSWTz0akhGJ5G0a-115" value="&amp;lt;&amp;lt;include&amp;gt;&amp;gt;" style="edgeLabel;html=1;align=center;verticalAlign=middle;resizable=0;points=[];fontSize=14;labelBackgroundColor=#DAD2D8;fontColor=#143642;" parent="_EjSreSWTz0akhGJ5G0a-102" vertex="1" connectable="0">
          <mxGeometry x="-0.5821" y="-3" relative="1" as="geometry">
            <mxPoint x="70" y="-4" as="offset" />
          </mxGeometry>
        </mxCell>
        <mxCell id="_EjSreSWTz0akhGJ5G0a-103" value="" style="endArrow=open;endSize=12;dashed=1;html=1;rounded=0;fontSize=14;labelBackgroundColor=#DAD2D8;strokeColor=#A8201A;fontColor=#143642;" parent="1" edge="1">
          <mxGeometry width="160" relative="1" as="geometry">
            <mxPoint x="1090" y="37" as="sourcePoint" />
            <mxPoint x="1030" y="89" as="targetPoint" />
          </mxGeometry>
        </mxCell>
        <mxCell id="_EjSreSWTz0akhGJ5G0a-109" value="&amp;lt;&amp;lt;include&amp;gt;&amp;gt;" style="edgeLabel;html=1;align=center;verticalAlign=middle;resizable=0;points=[];fontSize=14;labelBackgroundColor=#DAD2D8;fontColor=#143642;" parent="_EjSreSWTz0akhGJ5G0a-103" vertex="1" connectable="0">
          <mxGeometry x="-0.437" y="2" relative="1" as="geometry">
            <mxPoint x="-64" y="-8" as="offset" />
          </mxGeometry>
        </mxCell>
        <mxCell id="_EjSreSWTz0akhGJ5G0a-113" value="User Authentication" style="ellipse;whiteSpace=wrap;html=1;fontSize=14;fillColor=#FAE5C7;strokeColor=#0F8B8D;fontColor=#143642;" parent="1" vertex="1">
          <mxGeometry x="1240" y="105" width="110" height="70" as="geometry" />
        </mxCell>
        <mxCell id="_EjSreSWTz0akhGJ5G0a-114" value="Payment" style="ellipse;whiteSpace=wrap;html=1;fontSize=14;fillColor=#FAE5C7;strokeColor=#0F8B8D;fontColor=#143642;" parent="1" vertex="1">
          <mxGeometry x="940" y="95" width="110" height="70" as="geometry" />
        </mxCell>
        <mxCell id="_EjSreSWTz0akhGJ5G0a-117" value="&amp;lt;&amp;lt;include&amp;gt;&amp;gt;" style="html=1;verticalAlign=bottom;endArrow=open;dashed=1;endSize=8;rounded=0;fontSize=14;exitX=0.5;exitY=1;exitDx=0;exitDy=0;entryX=0;entryY=0.5;entryDx=0;entryDy=0;labelBackgroundColor=#DAD2D8;strokeColor=#A8201A;fontColor=#143642;" parent="1" source="QLCO7SmvpS3FhjPmcOOt-3" target="_EjSreSWTz0akhGJ5G0a-37" edge="1">
          <mxGeometry x="0.5182" y="-51" relative="1" as="geometry">
            <mxPoint x="1130" y="-180" as="sourcePoint" />
            <mxPoint x="830" y="-880" as="targetPoint" />
            <mxPoint as="offset" />
            <Array as="points">
              <mxPoint x="375" y="-280" />
              <mxPoint x="80" y="-280" />
              <mxPoint x="80" y="-880" />
              <mxPoint x="760" y="-880" />
            </Array>
          </mxGeometry>
        </mxCell>
        <mxCell id="_EjSreSWTz0akhGJ5G0a-119" value="" style="endArrow=classic;html=1;rounded=0;fontSize=14;labelBackgroundColor=#DAD2D8;strokeColor=#A8201A;fontColor=#143642;" parent="1" edge="1">
          <mxGeometry width="50" height="50" relative="1" as="geometry">
            <mxPoint x="880" y="-530" as="sourcePoint" />
            <mxPoint x="1270" y="-400" as="targetPoint" />
          </mxGeometry>
        </mxCell>
        <mxCell id="_EjSreSWTz0akhGJ5G0a-120" value="&lt;font style=&quot;font-size: 14px&quot;&gt;Access Free&lt;br&gt;Old Books&lt;/font&gt;" style="ellipse;whiteSpace=wrap;html=1;fillColor=#FAE5C7;strokeColor=#0F8B8D;fontColor=#143642;" parent="1" vertex="1">
          <mxGeometry x="1280" y="-430" width="130" height="75" as="geometry" />
        </mxCell>
        <mxCell id="QLCO7SmvpS3FhjPmcOOt-1" value="Admin" style="shape=umlActor;verticalLabelPosition=bottom;verticalAlign=top;html=1;outlineConnect=0;fontSize=14;fillColor=#FAE5C7;strokeColor=#0F8B8D;fontColor=#143642;" parent="1" vertex="1">
          <mxGeometry x="280" y="-610" width="50" height="100" as="geometry" />
        </mxCell>
        <mxCell id="QLCO7SmvpS3FhjPmcOOt-2" value="" style="endArrow=block;endSize=16;endFill=0;html=1;rounded=0;exitX=0.5;exitY=0;exitDx=0;exitDy=0;exitPerimeter=0;entryX=0;entryY=1;entryDx=0;entryDy=0;entryPerimeter=0;fontSize=14;labelBackgroundColor=#DAD2D8;strokeColor=#A8201A;fontColor=#143642;" parent="1" source="QLCO7SmvpS3FhjPmcOOt-1" target="_EjSreSWTz0akhGJ5G0a-1" edge="1">
          <mxGeometry width="160" relative="1" as="geometry">
            <mxPoint x="587" y="-590" as="sourcePoint" />
            <mxPoint x="585.6285714285714" y="-710" as="targetPoint" />
            <Array as="points" />
          </mxGeometry>
        </mxCell>
        <mxCell id="QLCO7SmvpS3FhjPmcOOt-3" value="Manage Books" style="ellipse;whiteSpace=wrap;html=1;fontSize=14;fillColor=#FAE5C7;strokeColor=#0F8B8D;fontColor=#143642;" parent="1" vertex="1">
          <mxGeometry x="320" y="-410" width="110" height="70" as="geometry" />
        </mxCell>
        <mxCell id="QLCO7SmvpS3FhjPmcOOt-4" value="&lt;font style=&quot;font-size: 14px&quot;&gt;Modify Account&lt;/font&gt;" style="ellipse;whiteSpace=wrap;html=1;fillColor=#FAE5C7;strokeColor=#0F8B8D;fontColor=#143642;" parent="1" vertex="1">
          <mxGeometry x="160" y="-410" width="110" height="70" as="geometry" />
        </mxCell>
        <mxCell id="QLCO7SmvpS3FhjPmcOOt-9" value="" style="endArrow=classic;html=1;rounded=0;exitX=1;exitY=1;exitDx=0;exitDy=0;exitPerimeter=0;entryX=0.5;entryY=0;entryDx=0;entryDy=0;fontSize=14;labelBackgroundColor=#DAD2D8;strokeColor=#A8201A;fontColor=#143642;" parent="1" source="QLCO7SmvpS3FhjPmcOOt-1" target="QLCO7SmvpS3FhjPmcOOt-3" edge="1">
          <mxGeometry width="50" height="50" relative="1" as="geometry">
            <mxPoint x="290" y="-500" as="sourcePoint" />
            <mxPoint x="195" y="-400" as="targetPoint" />
          </mxGeometry>
        </mxCell>
      </root>
    </mxGraphModel>
  </diagram>
</mxfile>
